<?xml version="1.0" encoding="utf-8"?>
<svg xmlns="http://www.w3.org/2000/svg" xmlns:xlink="http://www.w3.org/1999/xlink" style="margin: auto; background: none; display: block; shape-rendering: auto;" width="125px" height="125px" viewBox="0 0 100 100" preserveAspectRatio="xMidYMid">
<g transform="translate(50 50)">
<g>
<animateTransform attributeName="transform" type="rotate" values="0;60" keyTimes="0;1" dur="0.33112582781456956s" repeatCount="indefinite"></animateTransform><path d="M3.4278273002005197 -11.5 L30.42782730020052 -11.5 L30.42782730020052 11.5 L3.4278273002005197 11.5 A12 12 0 0 1 11.673205793621303 -2.7814144782405243 L11.673205793621303 -2.7814144782405243 L25.1732057936213 20.60127142393932 L5.254621506579214 32.10127142393932 L-8.245378493420784 8.71858552175948 A12 12 0 0 1 8.245378493420787 8.718585521759476 L8.245378493420787 8.718585521759476 L-5.2546215065792055 32.10127142393932 L-25.1732057936213 20.60127142393933 L-11.673205793621307 -2.7814144782405177 A12 12 0 0 1 -3.4278273002005184 11.500000000000002 L-3.4278273002005184 11.500000000000002 L-30.42782730020052 11.500000000000009 L-30.42782730020052 -11.499999999999993 L-3.4278273002005184 -11.5 A12 12 0 0 1 -11.673205793621303 2.781414478240531 L-11.673205793621303 2.781414478240531 L-25.173205793621314 -20.60127142393931 L-5.2546215065792286 -32.10127142393932 L8.245378493420784 -8.71858552175948 A12 12 0 0 1 -8.245378493420795 -8.71858552175947 L-8.245378493420795 -8.71858552175947 L5.254621506579184 -32.10127142393933 L25.173205793621285 -20.60127142393934 L11.673205793621307 2.7814144782405164 A12 12 0 0 1 3.4278273002005144 -11.500000000000002 M0 -18A18 18 0 1 0 0 18 A18 18 0 1 0 0 -18" fill="#290908"></path></g></g>
<!-- [ldio] generated by https://loading.io/ --></svg>